<svg xmlns="http://www.w3.org/2000/svg" width="51" height="51" stroke="#006186" fill="none" stroke-width="1.742" xmlns:v="https://vecta.io/nano"><path d="M25.644 50.012c13.458 0 24.369-10.91 24.369-24.369S39.102 1.275 25.644 1.275 1.275 12.185 1.275 25.643s10.91 24.369 24.369 24.369"/><g stroke-linejoin="round"><path d="M19.544 36.634h1.375 1.375v-3.883l4.431-3.347c.574-.431.921-1.175.921-1.968v-8.43-7.352c0-1.298-.904-2.351-2.023-2.351h-4.704-4.704c-1.12 0-2.026 1.053-2.026 2.351v7.352 8.43c0 .793.346 1.537.92 1.968l4.435 3.351v3.879zm16.462-7.277h1.448v6.222h-1.448-1.448v-6.222z"/><path d="M36.006 35.578v2.513m0-8.734v-8.052c0-.732-.297-1.391-.773-1.87s-1.139-.773-1.87-.773c-1.46 0-2.644 1.183-2.644 2.643l.101 16.504a4.92 4.92 0 0 1-4.951 4.951 4.95 4.95 0 0 1-4.951-4.952v-.895m-2.605-.279h5.209m-9.334-17.813c1.828 0 2.743.846 3.656 1.692s1.828 1.692 3.657 1.692 2.742-.846 3.656-1.692" stroke-linecap="round"/></g></svg>