<svg xmlns="http://www.w3.org/2000/svg" width="51" height="51" stroke="#006186" fill="none" stroke-width="1.742" xmlns:v="https://vecta.io/nano"><path d="M25.644 50.012c13.458 0 24.369-10.91 24.369-24.369S39.103 1.275 25.644 1.275 1.275 12.186 1.275 25.643s10.911 24.369 24.369 24.369" stroke-linecap="round" stroke-linejoin="round"/><path d="M17.524 27.245h-3.129v-3.13m9.945 3.13h-3.129v-3.13m9.946 3.13h-3.13v-3.13M17.524 34.283h-3.129v-3.13m9.945 3.13h-3.129v-3.13m9.946 3.13h-3.13v-3.13m9.946-5.473h-3.129"/><path d="M36.408 24.116v3.13m1.565 7.037h-3.129v-3.13"/><path d="M41.051 20.952v14.553a2.2 2.2 0 0 1-2.2 2.2H12.962a2.2 2.2 0 0 1-2.199-2.2V16.924a2.2 2.2 0 0 1 2.199-2.2h25.889"/><path d="M15.405 12.427v4.238m4.201-4.238v4.238m4.201-4.238v4.238m4.2-4.238v4.238m4.201-4.238v4.238m4.2-4.238v4.238"/></svg>