<svg xmlns="http://www.w3.org/2000/svg" width="51" height="51" stroke="#006186" fill="none" stroke-width="1.742" xmlns:v="https://vecta.io/nano"><path d="M25.644 50.012c13.458 0 24.369-10.91 24.369-24.369S39.102 1.275 25.644 1.275 1.275 12.186 1.275 25.643s10.91 24.369 24.369 24.369"/><path d="M22.437 38.34h19.015V18.46h-8.818a2.81 2.81 0 0 1-2.637-1.836l-.755-2.04c-.409-1.103-1.461-1.835-2.637-1.835H12.95c-1.553 0-2.812 1.259-2.812 2.813V28.4"/><path d="M19.43 27.068v2.66l3.881 1.365c1.023.439 1.687 1.445 1.687 2.559v4.688m-9.292-11.272v2.66l-3.881 1.365c-1.023.439-1.687 1.445-1.687 2.559v4.688"/><path d="M17.702 27.367h-.261a3.22 3.22 0 0 1-3.22-3.22v-1.998a3.22 3.22 0 0 1 3.22-3.22h.261a3.22 3.22 0 0 1 3.22 3.22v1.998a3.22 3.22 0 0 1-3.22 3.22zm20.842-3.786h-3.928"/><path d="M36.58 21.617v3.928M13.688 36.244v2.096m8.526-2.096v2.096m6.774-6.762h8.397m-8.397 3.18h6.46"/></svg>